HIERARCHY
ROOT pelvis
{
  OFFSET 0 100 0
  CHANNELS 6 Xposition Yposition Zposition Zrotation Xrotation Yrotation
  JOINT pelvis_right_femur
  {
    OFFSET -10.78128 -3.44521 -0.5502486
    CHANNELS 3 Zrotation Xrotation Yrotation
    JOINT right_femur_tibia
    {
      OFFSET -0.8047443 -44.0398 -0.1307829
      CHANNELS 3 Zrotation Xrotation Yrotation
      JOINT right_tibia_foot
      {
        OFFSET 3.006224 -47.83518 -5
        CHANNELS 3 Zrotation Xrotation Yrotation
        End Site
        {
          OFFSET 0 -5 15
        }
      }
    }
  }
  JOINT pelvis_left_femur
  {
    OFFSET 10.78128 -3.44521 -0.5502486
    CHANNELS 3 Zrotation Xrotation Yrotation
    JOINT left_femur_tibia
    {
      OFFSET 0.8047443 -44.0398 -0.1307829
      CHANNELS 3 Zrotation Xrotation Yrotation
      JOINT left_tibia_foot
      {
        OFFSET -4.370144 -48.10324 -4.275266
        CHANNELS 3 Zrotation Xrotation Yrotation
        End Site
        {
          OFFSET 0 -5 15
        }
      }
    }
  }
  JOINT pelvis_spine1
  {
    OFFSET 0 6.468898 -3.129235
    CHANNELS 3 Zrotation Xrotation Yrotation
    JOINT spine1
    {
      OFFSET 0 23.15396 4.99043
      CHANNELS 3 Zrotation Xrotation Yrotation
      JOINT spine2
      {
        OFFSET 0 20.79997 -5.064912
        CHANNELS 3 Zrotation Xrotation Yrotation
        JOINT neck
        {
          OFFSET 0 14.38658 9.616178
          CHANNELS 3 Zrotation Xrotation Yrotation
          End Site
          {
            OFFSET 0 20 0
          }
        }
      }
      JOINT right_manubrium
      {
        OFFSET -5.722621 16.35077 3.967754
        CHANNELS 3 Zrotation Xrotation Yrotation
        JOINT right_clavicle
        {
          OFFSET -13.16364 1.694482 -4.693211
          CHANNELS 3 Zrotation Xrotation Yrotation
          JOINT right_humerus
          {
            OFFSET -28.5034 -0.3100689 -2.792744
            CHANNELS 3 Zrotation Xrotation Yrotation
            JOINT right_radius
            {
              OFFSET -25.15693 0.02248979 -1.271978
              CHANNELS 3 Zrotation Xrotation Yrotation
              End Site
              {
                OFFSET -15 0 0
              }
            }
          }
        }
      }
      JOINT left_manubrium
      {
        OFFSET 5.722621 16.35077 3.967754
        CHANNELS 3 Zrotation Xrotation Yrotation
        JOINT left_clavicle
        {
          OFFSET 13.16364 1.694482 -4.693211
          CHANNELS 3 Zrotation Xrotation Yrotation
          JOINT left_humerus
          {
            OFFSET 29.39168 -1.063119 -2.237045
            CHANNELS 3 Zrotation Xrotation Yrotation
            JOINT left_radius
            {
              OFFSET 24.59957 -0.9528479 0.9047498
              CHANNELS 3 Zrotation Xrotation Yrotation
              End Site
              {
                OFFSET 15 -0 -0
              }
            }
          }
        }
      }
    }
  }
}
MOTION
Frames: 21
Frame Time: 0.0416666666667
-553.4828 101.2404 2818.375 -4.603585 -8.954094 -32.23365 0.8580452 21.60865 -1.388291 -0 30.20752 -0 -8.999614 -0.8147777 -0.3675523 -4.25149 -13.85074 -10.0748 -0 14.8533 -0 -4.816111 -9.885248 22.32193 -2.104947 -2.237444 6.385756 0.9144183 11.30786 -7.181924 0.02922315 21.63681 5.868001 1.574159 -24.01929 7.176596 -1.725808 -24.57215 12.73065 89.76562 29.12726 -14.14049 -0 0 19.38346 -22.03864 9.792914 11.84949 3.819768 -19.90212 -1.77326 -91.19185 16.71919 27.67617 0 0 -9.769144 9.122643 12.64345 -2.029671
-556.2479 101.639 2824.411 -4.120834 -8.87966 -32.0147 0.3641744 17.78861 -0.2409627 -0 36.10594 -0 -8.595029 4.095797 -0.6115808 -4.699839 -12.21908 -9.811427 -0 16.00422 -0 -3.043764 -10.04307 22.00015 -2.198811 -2.113055 6.405296 0.7013604 11.38748 -6.97771 0.04774677 21.62814 6.027726 1.799139 -23.83025 7.170427 -1.640231 -24.22683 12.66724 90.02012 29.45159 -14.34921 -0 0 18.68125 -22.33993 9.850629 12.12803 3.686476 -19.96032 -2.156587 -91.05809 17.19303 27.51417 0 0 -10.91435 8.459257 12.08872 -0.7759358
-558.8663 102.2746 2830.296 -3.720729 -8.57112 -31.54079 0.2732472 13.05605 0.7085594 -0 41.38513 -0 -7.842627 7.460494 -1.191299 -4.880906 -10.14022 -9.292168 -0 16.5976 -0 -1.437043 -10.30066 21.25086 -2.10178 -1.977416 6.412831 0.4782937 11.68422 -6.825631 0.1547046 21.61746 5.959736 1.860133 -23.56762 7.099342 -1.892899 -24.11233 12.59781 90.79571 29.14134 -14.79678 -0 0 17.9841 -22.64525 9.935714 12.26151 3.440831 -20.14313 -2.787523 -90.80802 17.40139 27.40923 0 0 -12.19932 7.844759 11.70344 0.4234159
-561.341 102.988 2835.991 -3.621014 -8.31261 -30.91885 0.4925535 7.712782 1.126881 -0 44.74916 -0 -7.170343 9.081372 -1.938234 -4.885467 -7.334851 -8.806357 -0 16.40885 -0 -0.4016308 -10.90898 20.36696 -1.800203 -1.846302 6.379779 0.2764314 12.19994 -6.763968 0.3551479 21.62489 5.693901 1.782385 -23.26517 6.995071 -2.478326 -24.13956 12.52099 92.14222 28.17354 -15.64386 -0 0 17.11823 -22.8323 10.02659 12.09115 3.137462 -20.54052 -3.649849 -90.3933 17.3235 27.13612 0 0 -13.76055 7.436438 11.58053 1.343665
-563.6911 103.5855 2841.459 -3.760196 -8.15309 -30.2489 0.7859073 1.954218 1.020962 -0 45.34038 -0 -6.790812 9.142872 -2.685481 -4.779976 -3.843219 -8.475904 -0 15.45945 -0 0.08358457 -11.90277 19.42828 -1.286214 -1.730328 6.297568 0.1312523 12.90311 -6.810799 0.642377 21.66255 5.26081 1.593698 -22.9316 6.864616 -3.340582 -24.21395 12.43483 93.93648 26.5907 -16.88515 -0 0 15.98864 -22.80437 10.11519 11.53268 2.828297 -21.20867 -4.686156 -89.76891 16.92423 26.50077 0 0 -15.7023 7.363106 11.78971 1.808728
-565.9447 103.894 2846.683 -3.917963 -7.973366 -29.60363 0.920349 -3.991671 0.5220377 -0 43.04433 -0 -6.696781 8.005459 -3.340266 -4.664328 0.1296391 -8.379825 -0 13.97013 -0 0.15513 -13.26869 18.38763 -0.6271208 -1.636129 6.170089 0.07494219 13.67244 -6.951738 0.9759571 21.73881 4.747937 1.352876 -22.59205 6.723173 -4.327896 -24.22933 12.34324 95.84522 24.63032 -18.32088 -0 0 14.6267 -22.54504 10.16826 10.63398 2.577082 -22.09432 -5.750894 -88.96984 16.24728 25.41878 0 0 -17.93565 7.672926 12.29958 1.721518
-568.1278 103.7992 2851.649 -3.865537 -7.568927 -29.0283 0.7861932 -9.926789 -0.2025811 -0 38.29892 -0 -6.748685 6.005957 -3.869902 -4.640193 4.328173 -8.606202 -0 12.22397 -0 -0.07145436 -15.00772 17.22573 -0.0157815 -1.559867 5.989008 0.1227626 14.27495 -7.14202 1.266983 21.85946 4.34589 1.171377 -22.34753 6.631721 -5.185008 -24.08217 12.26466 97.42598 22.80306 -19.65109 -0 0 13.20531 -22.15054 10.10372 9.596676 2.473631 -22.99235 -6.600912 -88.16262 15.51792 23.98516 0 0 -20.06037 8.280845 12.92604 1.100483
-570.248 103.2683 2856.336 -3.423981 -6.688865 -28.55031 0.4615344 -15.71471 -0.8961814 -0 31.8545 -0 -6.747265 3.429008 -4.248152 -4.773376 8.422042 -9.257382 -0 10.51126 -0 -0.455434 -17.10432 16.05856 0.2922215 -1.482582 5.724893 0.2673499 14.45403 -7.331582 1.405615 22.02128 4.295963 1.183425 -22.36247 6.687392 -5.635917 -23.70891 12.23039 98.32494 21.73079 -20.64282 -0 0 11.97075 -21.77273 9.832881 8.687152 2.615265 -23.6277 -6.982207 -87.57353 15.0971 22.42646 0 0 -21.5087 9.002371 13.40485 0.06501333
-572.2847 102.3739 2860.709 -2.506034 -5.080856 -28.18724 0.2970428 -21.24039 -1.116391 -0 24.80915 -0 -6.489781 0.658744 -4.397542 -5.068648 11.89941 -10.41213 -0 9.162364 -0 -0.6939446 -19.42804 15.22896 0.1394139 -1.384383 5.362124 0.4918064 14.09094 -7.496608 1.327175 22.19929 4.740755 1.469193 -22.74419 6.959857 -5.510813 -23.1163 12.26395 98.4065 21.8019 -21.22135 -0 0 11.12084 -21.48326 9.349925 8.071697 3.049573 -23.82568 -6.767714 -87.34567 15.24439 20.95328 0 0 -21.91338 9.690199 13.55705 -1.248457
-574.2092 101.2989 2864.775 -1.235058 -2.667059 -27.93062 0.9235775 -26.37284 -0.3174452 -0 18.6608 -0 -5.898308 -1.623223 -4.165551 -5.448087 14.11945 -11.9864 -0 8.551266 -0 -0.2487801 -21.59444 15.27004 -0.4305084 -1.267568 4.931342 0.7847139 13.28263 -7.647314 1.056866 22.34507 5.625847 2.005661 -23.44437 7.442629 -4.810174 -22.3683 12.35866 97.75418 22.96433 -21.45394 -0 0 10.70745 -21.1905 8.766138 7.729862 3.73541 -23.61709 -6.025512 -87.46932 15.93291 19.64826 0 0 -21.37573 10.33046 13.38171 -2.736355
-576.0576 100.2473 2868.689 -0.04662417 0.10519 -27.68035 2.723147 -30.87154 1.48567 -0 14.53886 -0 -5.228762 -2.529655 -3.449527 -5.766457 14.89532 -13.48123 -0 8.956548 -0 1.171213 -22.99279 16.29114 -1.187227 -1.155592 4.493062 1.127126 12.29711 -7.800831 0.7076165 22.40902 6.709829 2.66627 -24.26738 8.044124 -3.723526 -21.561 12.46924 96.66376 24.734 -21.50775 -0 0 10.59254 -20.71386 8.250795 7.514035 4.542376 -23.22375 -5.019175 -87.77952 16.87597 18.4586 0 0 -20.50497 10.97511 13.02048 -4.232198
-578.0025 99.28214 2872.805 0.5755202 2.220117 -27.23729 4.848727 -34.22205 2.948792 -0 11.91238 -0 -4.958752 -1.588809 -2.483168 -5.883159 15.20484 -14.00658 -0 10.46821 -0 2.541582 -23.29286 17.02567 -1.856324 -1.060454 4.103811 1.450787 11.43134 -7.933475 0.4122478 22.37248 7.687258 3.282626 -24.96042 8.605225 -2.574777 -20.80434 12.53806 95.57257 26.46673 -21.54732 -0 0 10.53259 -20.05392 7.93296 7.36774 5.286354 -22.91148 -4.117872 -88.02073 17.75093 17.33616 0 0 -20.09665 11.50957 12.60316 -5.31278
-580.2833 98.37809 2877.498 0.595817 2.991695 -26.5049 5.923112 -35.67199 2.818963 -0 9.640887 -0 -5.089133 0.5684371 -1.8953 -5.743058 16.24239 -13.13427 -0 13.34084 -0 2.100782 -22.64439 15.91556 -2.308882 -0.97095 3.796479 1.660412 10.84177 -7.99582 0.2256688 22.26263 8.379793 3.756059 -25.34613 8.972507 -1.633521 -20.16509 12.54766 94.81307 27.76666 -21.63617 -0 0 10.34705 -19.52704 7.842059 7.424216 5.839439 -22.82224 -3.572028 -87.99777 18.40954 16.30125 0 0 -20.54642 11.63894 12.13998 -5.497649
-583.0214 97.69992 2882.925 0.2960023 2.845939 -25.62829 6.188851 -34.62412 2.159705 -0 8.429479 -0 -5.112636 2.392804 -2.157181 -5.349145 17.59457 -11.55908 -0 18.34017 -0 -0.3462834 -20.72495 13.34847 -2.546459 -0.8908024 3.572785 1.715664 10.54649 -7.982341 0.1420487 22.14528 8.747984 4.052741 -25.39122 9.088623 -1.064811 -19.67506 12.51413 94.53795 28.44099 -21.80082 -0 0 9.96872 -19.44341 7.901239 7.743013 6.177572 -22.98264 -3.437989 -87.66229 18.81744 15.34712 0 0 -21.72274 11.25029 11.65609 -4.759984
-586.0907 97.61522 2888.921 -0.1962079 2.834198 -24.94935 6.899948 -31.1445 2.784834 -0 9.865881 -0 -5.03471 2.48768 -2.858831 -4.607626 17.30363 -10.3409 -0 26.36006 -0 -3.368404 -16.65888 10.78685 -2.589663 -0.8600805 3.459779 1.602554 10.54181 -7.903723 0.1556968 22.08377 8.779963 4.142045 -25.13805 8.970931 -0.9725051 -19.40115 12.44705 94.79066 28.38533 -22.02667 -0 0 9.463334 -19.91512 8.008663 8.26774 6.272134 -23.33442 -3.681312 -87.13704 18.98922 14.62989 0 0 -23.16555 10.41294 11.22838 -3.318953
-589.1105 98.3361 2895.046 -0.8221365 3.799004 -24.81246 8.412509 -26.37745 4.676103 -0 13.26438 -0 -5.503651 0.7268583 -2.670936 -3.542743 13.13047 -9.88969 -0 37.26314 -0 -5.404553 -10.51055 8.916908 -2.457507 -0.9140477 3.557839 1.313116 10.83438 -7.747658 0.2564741 22.08174 8.491533 4.018801 -24.67538 8.677507 -1.292594 -19.45033 12.36247 95.38456 27.79319 -22.13823 -0 0 9.123659 -20.79317 8.152522 8.922318 6.033602 -23.65497 -4.177131 -86.77246 19.02611 14.69505 0 0 -24.05816 9.272158 10.88831 -1.39462
-591.8015 99.59213 2900.965 -1.26306 4.647354 -25.18292 9.552548 -21.89792 6.036802 -0 14.67073 -0 -5.97718 -1.216054 -1.569776 -2.775769 6.445276 -9.385869 -0 48.93071 -0 -6.05963 -4.881707 7.867232 -2.215663 -1.035825 3.932932 0.9032083 11.36079 -7.504928 0.4030783 22.08842 7.978482 3.732234 -24.13944 8.299904 -1.791502 -19.88851 12.29917 95.90622 27.12966 -21.85587 -0 0 9.325927 -21.73046 8.395915 9.622087 5.442344 -23.66237 -4.717032 -86.90739 19.02048 16.01767 0 0 -23.73672 8.083106 10.63188 0.6403715
-594.3876 101.0441 2906.678 -1.615756 2.340167 -25.90966 9.056829 -16.94532 6.532034 -0 13.64924 -0 -4.587405 -2.196678 -2.332532 -2.757195 2.252423 -8.01215 -0 59.17614 -0 -6.143778 -2.473712 9.157659 -1.870993 -1.210621 4.471169 0.4866765 12.02721 -7.224439 0.587184 22.07916 7.281937 3.287272 -23.6006 7.889578 -2.437767 -20.66771 12.25055 96.29286 26.38053 -21.2388 -0 0 9.985972 -22.4573 8.737658 10.22597 4.636079 -23.46475 -5.262717 -87.3582 18.80901 18.16396 0 0 -22.80182 7.125889 10.59575 2.37325
-597.0098 102.6961 2912.047 -2.128232 -1.693254 -26.79182 7.670483 -10.73808 6.503704 -0 13.22373 -0 -3.4115 -3.553554 -3.973683 -2.978422 -1.134196 -6.928201 -0 65.28503 -0 -5.982324 -2.641981 12.05899 -1.249582 -1.458874 5.093772 0.1145147 12.94993 -6.981848 0.8781357 22.01478 6.24255 2.580313 -22.9593 7.381631 -3.432366 -21.81088 12.17947 96.89142 25.02996 -20.59958 -0 0 10.85293 -22.84445 9.276147 10.59024 3.645702 -23.38951 -6.017197 -87.75314 18.05976 20.62742 0 0 -22.23346 6.52207 10.98414 3.733147
-599.5837 104.3333 2917.004 -2.276755 -4.020699 -27.58762 6.337687 -5.064656 5.29533 -0 12.62669 -0 -4.660977 -5.611712 -3.800853 -2.851833 -6.501836 -6.705078 -0 64.96489 -0 -5.246175 -3.642587 13.81905 -0.271865 -1.792724 5.969938 -0.2766678 14.30799 -6.739872 1.31332 21.72385 4.6429 1.489639 -21.98078 6.643736 -4.67272 -23.60194 12.06832 97.51403 23.09932 -19.63984 -0 0 12.49231 -22.91875 10.40199 11.00398 2.322972 -23.33599 -7.055727 -88.15709 16.68645 23.98154 0 0 -21.92473 5.97635 11.64526 5.335443
-602.126 105.4346 2921.745 -2.365164 -5.192685 -28.29897 5.481635 0.07777806 3.655147 -0 11.32031 -0 -6.522392 -7.54624 -2.906494 -2.091897 -12.08448 -6.271596 -0 59.11836 -0 -4.027072 -4.450305 15.3297 0.7179556 -2.133714 7.082243 -0.6494823 15.68137 -6.425644 1.719231 21.01877 2.732942 0.142444 -20.77213 5.766708 -5.527074 -26.15503 11.91644 97.20547 21.54978 -17.57381 -0 0 15.91848 -22.75732 12.278 12.07022 0.8572187 -22.80393 -7.918314 -88.83165 15.09432 28.67227 0 0 -21.1605 5.156358 12.11707 7.570155
